<?xml version="1.0" encoding="utf-8"?>
<!-- Generator: Adobe Illustrator 19.2.0, SVG Export Plug-In . SVG Version: 6.00 Build 0)  -->
<svg version="1.1" id="Capa_1" xmlns="http://www.w3.org/2000/svg" xmlns:xlink="http://www.w3.org/1999/xlink" x="0px" y="0px"
	 viewBox="0 0 18 18" style="enable-background:new 0 0 18 18;" xml:space="preserve">
<g>
	<path d="M9.2,8.8c2,0,3.6-2,3.6-4.4C12.8,2,12.3,0,9.2,0S5.6,2,5.6,4.4C5.6,6.9,7.2,8.8,9.2,8.8z"/>
	<path d="M2.4,15.5C2.4,15.4,2.4,15.5,2.4,15.5L2.4,15.5z"/>
	<path d="M16,15.6C16,15.6,16,15.4,16,15.6L16,15.6z"/>
	<path d="M16,15.4c-0.1-4.2-0.6-5.4-4.8-6.2c0,0-0.6,0.8-2,0.8s-2-0.8-2-0.8c-4.2,0.8-4.8,1.9-4.8,6.1c0,0.3,0,0.4,0,0.3
		c0,0.1,0,0.2,0,0.4c0,0,1,2,6.8,2c5.8,0,6.8-2,6.8-2c0-0.2,0-0.3,0-0.3C16,15.7,16,15.6,16,15.4z"/>
</g>
</svg>
