<?xml version="1.0" encoding="utf-8"?>
<!-- Generator: Adobe Illustrator 19.2.0, SVG Export Plug-In . SVG Version: 6.00 Build 0)  -->
<svg version="1.1" id="Capa_1" xmlns="http://www.w3.org/2000/svg" xmlns:xlink="http://www.w3.org/1999/xlink" x="0px" y="0px"
	 viewBox="0 0 18 18" style="enable-background:new 0 0 18 18;" xml:space="preserve">
<g>
	<path d="M12.3,0C9.2,0,6.7,2.5,6.7,5.7c0,0.7,0.1,1.3,0.3,2l-7,7V18h3.3v-2h2v-2h2l3-3c0.6,0.2,1.3,0.3,2,0.3
		c3.1,0,5.7-2.5,5.7-5.7S15.5,0,12.3,0z M14,6c-1.1,0-2-0.9-2-2s0.9-2,2-2s2,0.9,2,2S15.1,6,14,6z"/>
</g>
</svg>
