<?xml version="1.0" encoding="utf-8"?>
<!-- Generator: Adobe Illustrator 19.2.0, SVG Export Plug-In . SVG Version: 6.00 Build 0)  -->
<svg version="1.1" id="Слой_1" xmlns="http://www.w3.org/2000/svg" xmlns:xlink="http://www.w3.org/1999/xlink" x="0px" y="0px"
	 viewBox="0 0 274.2 49.3" style="enable-background:new 0 0 274.2 49.3;" xml:space="preserve">
<style type="text/css">
	.st0{fill:#7FB94A;}
</style>
<g>
	<path class="st0" d="M136.5,18.8c-2.2,9.3-4.5,18.5-6.7,27.8c-0.5,2.1-1.3,2.8-3.5,2.7c-5.2-0.2-10.4-0.1-15.6,0
		c-1.5,0-2.2-0.5-2.5-2c-3.4-14.8-6.8-29.7-10.3-44.5c-0.4-1.7-0.1-2,1.6-2c4.5,0.1,9.1,0.1,13.6,0c1.4,0,2,0.4,2.3,1.9
		c1.5,8.6,3.2,17.3,4.9,25.9c0.2,0.8,0.4,1.6,0.7,3.1c2.4-9.7,4.8-18.8,6.8-27.8c0.6-2.4,1.5-3.2,4-3.1c4.2,0.2,8.4,0.1,12.6,0
		c1.7,0,2.3,0.5,2.6,2.2c1.9,8.3,4,16.6,6,24.9c0.2,0.9,0.5,1.7,1.2,2.6c0.6-3,1.2-5.9,1.8-8.9c1.2-6.3,2.4-12.7,3.6-19
		c0.2-1.4,0.8-1.8,2.2-1.8c4.4,0.1,8.7,0.1,13.1,0c1.7,0,1.7,0.6,1.4,1.9c-3.6,14.9-7.2,29.8-10.7,44.7c-0.4,1.6-1.2,1.9-2.6,1.9
		c-5.2-0.1-10.4-0.1-15.6,0c-1.8,0-2.5-0.5-2.9-2.2c-2.1-8.6-4.3-17.2-6.5-25.8c-0.2-0.9-0.5-1.7-0.7-2.5
		C136.9,18.7,136.7,18.8,136.5,18.8z"/>
	<path class="st0" d="M263.8,24.6c0.8,0.3,1.5,0.5,2.2,0.7c4.9,1.7,7.9,5.3,8.2,10c0.3,5.5-2,9.4-7,11.6c-3.8,1.8-7.9,2.1-12,2.2
		c-9,0.1-17.9,0-26.9,0.1c-1.9,0-2.4-0.5-2.4-2.4c0.1-14.7,0-29.3,0.1-44c0-1-0.4-2.3,1.5-2.2c11,0.3,22-0.6,32.9,0.5
		c5.7,0.6,10.6,3,12.3,9.1C274.5,16.7,271.2,21.9,263.8,24.6z M243.8,34.3c0,5.1,0,5.1,4.8,5c4.2-0.1,6.6-2,6.6-5
		c0-3-2.3-4.5-6.6-4.6C243.8,29.5,243.8,29.5,243.8,34.3z M243.8,15.3c0,4.6,0,4.6,4.6,4.5c0.2,0,0.3,0,0.5,0c3.6-0.2,5.9-1.9,6-4.5
		c0.1-2.6-2.4-4.5-6.1-4.7c-0.1,0-0.2,0-0.3,0C243.8,10.6,243.8,10.6,243.8,15.3z"/>
	<path class="st0" d="M-0.1,25c0-7.5,0-14.9,0-22.4c0-1-0.2-2,1.5-2C11.2,0.9,21,0.1,30.8,1.1C42.6,2.3,50,10.3,50.8,22.2
		c0.4,6.2-0.3,12.3-3.8,17.6c-3.7,5.8-9.4,8.5-16,9.1c-9.8,0.8-19.6,0.2-29.4,0.4c-1.7,0-1.6-1-1.6-2.1C0,39.8-0.1,32.4-0.1,25z
		 M18.6,24.6c0,3.5,0,7,0,10.5c0,0.7-0.3,1.5,0.8,1.8c5.3,1.4,10-1.4,11.3-6.7c0.7-2.7,0.6-5.5,0.4-8.2c-0.4-7.2-3.5-9.9-10.8-9.8
		c-1.4,0-1.9,0.5-1.8,1.9C18.6,17.6,18.6,21.1,18.6,24.6z"/>
	<path class="st0" d="M179.1,24.9c0-7.4,0-14.7,0-22.1c0-1.7,0.5-2.1,2.1-2.1c12.7,0.1,25.5,0.1,38.2,0c1.5,0,2.1,0.4,2,2
		c-0.1,2.4-0.1,4.9,0,7.3c0.1,1.8-0.4,2.4-2.3,2.4c-6.2-0.1-12.4,0-18.6-0.1c-2.2-0.1-2.9,0.5-2.8,2.7c0.2,4.2,0,4.2,4.3,4.2
		c5.4,0,10.7,0.1,16.1,0c2-0.1,2.4,0.6,2.3,2.4c-0.2,2.2-0.2,4.4,0,6.5c0.2,2-0.6,2.3-2.4,2.3c-6-0.1-12.1,0-18.1-0.1
		c-1.8,0-2.2,0.5-2.2,2.2c0.1,5,0,5,5,5c5.7,0,11.4,0,17.1,0c1.6,0,2.3,0.4,2.2,2.1c-0.1,2.6-0.1,5.2,0,7.8c0.1,1.5-0.5,1.8-1.9,1.8
		c-13,0-26-0.1-39,0c-1.8,0-2-0.8-2-2.3C179.2,39.6,179.1,32.3,179.1,24.9z"/>
	<path class="st0" d="M71,20.5c1-1.7,1.6-2.8,2.3-3.7c2.4-3.4,5.7-5,10-4.6c1.2,0.1,1.8,0.4,1.8,1.8c-0.1,3.8-0.1,7.5,0,11.3
		c0,1.3-0.3,1.7-1.7,1.6c-7.6-0.6-11.1,2.6-11.1,10.2c0,3.4-0.1,6.9,0,10.3c0,1.6-0.5,2-2,2c-4.6-0.1-9.2-0.1-13.8,0
		c-1.4,0-1.9-0.4-1.9-1.9c0-10.9,0-21.8,0-32.7c0-1.4,0.5-1.9,1.9-1.9c4.3,0.1,8.5,0.1,12.8,0c1.5,0,1.9,0.5,1.8,1.9
		C70.9,16.4,71,18.1,71,20.5z"/>
	<path class="st0" d="M92.4,35.8c1.9,0,3.9,0.1,5.8,0c1.3-0.1,2,0.2,1.9,1.7c-0.1,3.3-0.1,6.7,0,10.1c0,1.3-0.4,1.7-1.7,1.7
		c-3.9-0.1-7.9-0.1-11.8,0c-1.4,0-1.7-0.5-1.7-1.8c0.1-3.3,0.1-6.7,0-10.1c0-1.4,0.5-1.7,1.8-1.7C88.6,35.8,90.5,35.8,92.4,35.8z"/>
</g>
</svg>
